HIERARCHY
ROOT Hips
{
	OFFSET 0.000000 0.000000 0.000000
	CHANNELS 6 Xposition Yposition Zposition Xrotation Yrotation Zrotation
	JOINT Thigh.L
	{
		OFFSET 0.055431 0.026550 -0.094897
		CHANNELS 3 Xrotation Yrotation Zrotation
		JOINT Shin.L
		{
			OFFSET 0.059839 0.007009 -0.410813
			CHANNELS 3 Xrotation Yrotation Zrotation
			JOINT Foot.L
			{
				OFFSET -0.042126 0.032085 -0.436566
				CHANNELS 3 Xrotation Yrotation Zrotation
				JOINT Toe.L
				{
					OFFSET 0.048332 -0.126726 -0.064110
					CHANNELS 3 Xrotation Yrotation Zrotation
					End Site
					{
						OFFSET 0.000000 0.050000 0.000000
					}
				}
			}
		}
	}
	JOINT Thigh.R
	{
		OFFSET -0.060493 0.020878 -0.107509
		CHANNELS 3 Xrotation Yrotation Zrotation
		JOINT Shin.R
		{
			OFFSET -0.048884 0.015007 -0.392165
			CHANNELS 3 Xrotation Yrotation Zrotation
			JOINT Foot.R
			{
				OFFSET 0.014035 0.020234 -0.445600
				CHANNELS 3 Xrotation Yrotation Zrotation
				JOINT Toe.R
				{
					OFFSET -0.039718 -0.127554 -0.064009
					CHANNELS 3 Xrotation Yrotation Zrotation
					End Site
					{
						OFFSET 0.000000 0.050000 0.000000
					}
				}
			}
		}
	}
	JOINT Spine
	{
		OFFSET -0.002521 0.028289 0.113763
		CHANNELS 3 Xrotation Yrotation Zrotation
		JOINT Spine.2
		{
			OFFSET 0.009044 0.006918 0.141001
			CHANNELS 3 Xrotation Yrotation Zrotation
			JOINT Chest
			{
				OFFSET -0.010925 -0.023121 0.056373
				CHANNELS 3 Xrotation Yrotation Zrotation
				JOINT Neck
				{
					OFFSET -0.012235 0.026686 0.171779
					CHANNELS 3 Xrotation Yrotation Zrotation
					JOINT Head
					{
						OFFSET 0.025350 -0.021417 0.173168
						CHANNELS 3 Xrotation Yrotation Zrotation
						End Site
						{
							OFFSET 0.000000 0.050000 0.000000
						}
					}
				}
				JOINT Clavicle.L
				{
					OFFSET 0.047610 0.005169 0.088241
					CHANNELS 3 Xrotation Yrotation Zrotation
					JOINT UpperArm.L
					{
						OFFSET 0.128018 0.013572 0.058017
						CHANNELS 3 Xrotation Yrotation Zrotation
						JOINT ForeArm.L
						{
							OFFSET 0.270676 0.043302 -0.075610
							CHANNELS 3 Xrotation Yrotation Zrotation
							JOINT Hand.L
							{
								OFFSET 0.274305 0.000862 0.022088
								CHANNELS 3 Xrotation Yrotation Zrotation
								JOINT Thumb1.L
								{
									OFFSET 0.154612 0.000376 0.009632
									CHANNELS 3 Xrotation Yrotation Zrotation
									JOINT Thumb2.L
									{
										OFFSET 0.029903 0.000094 0.002408
										CHANNELS 3 Xrotation Yrotation Zrotation
										End Site
										{
											OFFSET 0.024919 0.000078 0.002007
										}
									}
								}
								JOINT Index1.L
								{
									OFFSET 0.137612 0.000376 0.009632
									CHANNELS 3 Xrotation Yrotation Zrotation
									JOINT Index2.L
									{
										OFFSET 0.029903 0.000094 0.002408
										CHANNELS 3 Xrotation Yrotation Zrotation
										JOINT Index3.L
										{
											OFFSET 0.021929 0.000069 0.001766
											CHANNELS 3 Xrotation Yrotation Zrotation
											End Site
											{
												OFFSET 0.017942 0.000056 0.001445
											}
										}
									}
								}
								JOINT Middle1.L
								{
									OFFSET 0.119612 0.000376 0.009632
									CHANNELS 3 Xrotation Yrotation Zrotation
									JOINT Middle2.L
									{
										OFFSET 0.030900 0.000097 0.002488
										CHANNELS 3 Xrotation Yrotation Zrotation
										JOINT Middle3.L
										{
											OFFSET 0.021929 0.000069 0.001766
											CHANNELS 3 Xrotation Yrotation Zrotation
											End Site
											{
												OFFSET 0.017942 0.000056 0.001445
											}
										}
									}
								}
								JOINT Ring1.L
								{
									OFFSET 0.101612 0.000376 0.009632
									CHANNELS 3 Xrotation Yrotation Zrotation
									JOINT Ring2.L
									{
										OFFSET 0.028906 0.000091 0.002328
										CHANNELS 3 Xrotation Yrotation Zrotation
										JOINT Ring3.L
										{
											OFFSET 0.019935 0.000063 0.001605
											CHANNELS 3 Xrotation Yrotation Zrotation
											End Site
											{
												OFFSET 0.016945 0.000053 0.001365
											}
										}
									}
								}
								JOINT Pinky1.L
								{
									OFFSET 0.085612 0.000376 0.009632
									CHANNELS 3 Xrotation Yrotation Zrotation
									JOINT Pinky2.L
									{
										OFFSET 0.023922 0.000075 0.001926
										CHANNELS 3 Xrotation Yrotation Zrotation
										JOINT Pinky3.L
										{
											OFFSET 0.016945 0.000053 0.001365
											CHANNELS 3 Xrotation Yrotation Zrotation
											End Site
											{
												OFFSET 0.013955 0.000044 0.001124
											}
										}
									}
								}
							}
						}
					}
				}
				JOINT Clavicle.R
				{
					OFFSET -0.048612 0.011296 0.087305
					CHANNELS 3 Xrotation Yrotation Zrotation
					JOINT UpperArm.R
					{
						OFFSET -0.110989 0.009997 0.054341
						CHANNELS 3 Xrotation Yrotation Zrotation
						JOINT ForeArm.R
						{
							OFFSET -0.289214 0.027976 -0.039954
							CHANNELS 3 Xrotation Yrotation Zrotation
							JOINT Hand.R
							{
								OFFSET -0.270534 0.014407 -0.005706
								CHANNELS 3 Xrotation Yrotation Zrotation
								JOINT Thumb1.R
								{
									OFFSET -0.154804 0.006380 -0.002527
									CHANNELS 3 Xrotation Yrotation Zrotation
									JOINT Thumb2.R
									{
										OFFSET -0.029951 0.001595 -0.000632
										CHANNELS 3 Xrotation Yrotation Zrotation
										End Site
										{
											OFFSET -0.024959 0.001329 -0.000526
										}
									}
								}
								JOINT Index1.R
								{
									OFFSET -0.137804 0.006380 -0.002527
									CHANNELS 3 Xrotation Yrotation Zrotation
									JOINT Index2.R
									{
										OFFSET -0.029951 0.001595 -0.000632
										CHANNELS 3 Xrotation Yrotation Zrotation
										JOINT Index3.R
										{
											OFFSET -0.021964 0.001170 -0.000463
											CHANNELS 3 Xrotation Yrotation Zrotation
											End Site
											{
												OFFSET -0.017971 0.000957 -0.000379
											}
										}
									}
								}
								JOINT Middle1.R
								{
									OFFSET -0.119804 0.006380 -0.002527
									CHANNELS 3 Xrotation Yrotation Zrotation
									JOINT Middle2.R
									{
										OFFSET -0.030949 0.001648 -0.000653
										CHANNELS 3 Xrotation Yrotation Zrotation
										JOINT Middle3.R
										{
											OFFSET -0.021964 0.001170 -0.000463
											CHANNELS 3 Xrotation Yrotation Zrotation
											End Site
											{
												OFFSET -0.017971 0.000957 -0.000379
											}
										}
									}
								}
								JOINT Ring1.R
								{
									OFFSET -0.101804 0.006380 -0.002527
									CHANNELS 3 Xrotation Yrotation Zrotation
									JOINT Ring2.R
									{
										OFFSET -0.028953 0.001542 -0.000611
										CHANNELS 3 Xrotation Yrotation Zrotation
										JOINT Ring3.R
										{
											OFFSET -0.019967 0.001063 -0.000421
											CHANNELS 3 Xrotation Yrotation Zrotation
											End Site
											{
												OFFSET -0.016972 0.000904 -0.000358
											}
										}
									}
								}
								JOINT Pinky1.R
								{
									OFFSET -0.085804 0.006380 -0.002527
									CHANNELS 3 Xrotation Yrotation Zrotation
									JOINT Pinky2.R
									{
										OFFSET -0.023961 0.001276 -0.000505
										CHANNELS 3 Xrotation Yrotation Zrotation
										JOINT Pinky3.R
										{
											OFFSET -0.016972 0.000904 -0.000358
											CHANNELS 3 Xrotation Yrotation Zrotation
											End Site
											{
												OFFSET -0.013977 0.000744 -0.000295
											}
										}
									}
								}
							}
						}
					}
				}
			}
		}
	}
}
MOTION
Frames: 4
Frame Time: 0.04166667
0.107983 -0.188044 1.066459 8.306917 -3.359606 -28.771118 -19.226755 -15.573590 6.291019 18.035919 2.520622 6.961878 -2.337743 3.058255 6.704660 0.828390 0.058335 -0.151685 -30.291439 -3.583791 2.643177 26.403177 -1.000460 -1.578187 -9.504482 5.773080 -6.128439 -1.659445 -2.550920 0.082560 46.206770 0.778954 -6.559871 -5.824728 1.015853 -6.474580 4.942509 -1.396314 -4.842935 2.699671 14.556215 11.558614 -9.939358 -2.543461 14.910547 -2.520208 12.531676 -27.278214 0.417072 40.247630 -30.066943 -19.273149 5.877168 -40.593260 -26.569711 -17.330831 -13.914013 0.000000 0.000000 0.000000 0.000000 0.000000 0.000000 0.000000 0.000000 0.000000 0.000000 0.000000 0.000000 0.000000 0.000000 0.000000 0.000000 0.000000 0.000000 0.000000 0.000000 0.000000 0.000000 0.000000 0.000000 0.000000 0.000000 0.000000 0.000000 0.000000 0.000000 0.000000 0.000000 0.000000 0.000000 0.000000 0.000000 0.000000 0.000000 0.000000 0.000000 0.000000 0.000000 -4.458491 -3.172756 17.238916 22.564008 -48.807658 27.392481 -9.649974 6.105692 108.122881 -32.484084 5.989406 16.397226 0.000000 0.000000 0.000000 0.000000 0.000000 0.000000 0.000000 0.000000 0.000000 0.000000 0.000000 0.000000 0.000000 0.000000 0.000000 0.000000 0.000000 0.000000 0.000000 0.000000 0.000000 0.000000 0.000000 0.000000 0.000000 0.000000 0.000000 0.000000 0.000000 0.000000 0.000000 0.000000 0.000000 0.000000 0.000000 0.000000 0.000000 0.000000 0.000000 0.000000 0.000000 0.000000
0.112012 -0.192440 1.066907 7.980172 -3.404903 -28.506395 -18.746314 -15.783823 6.708009 19.033021 3.041558 6.872842 -2.276149 3.192515 6.823275 0.851060 0.123983 -0.142306 -29.824882 -3.303223 2.344131 25.999236 -1.394081 -1.672218 -9.637300 5.734845 -6.154689 -1.697870 -2.468514 0.091457 45.940701 0.829783 -6.246700 -5.423091 1.007263 -6.326120 4.590857 -1.378904 -4.626156 2.926386 14.261017 11.474965 -9.524740 -2.580017 14.958086 -2.098732 12.537762 -26.783683 -0.789961 39.321266 -27.679311 -19.367586 5.820566 -39.984660 -25.885132 -17.291516 -13.584311 0.000000 0.000000 0.000000 0.000000 0.000000 0.000000 0.000000 0.000000 0.000000 0.000000 0.000000 0.000000 0.000000 0.000000 0.000000 0.000000 0.000000 0.000000 0.000000 0.000000 0.000000 0.000000 0.000000 0.000000 0.000000 0.000000 0.000000 0.000000 0.000000 0.000000 0.000000 0.000000 0.000000 0.000000 0.000000 0.000000 0.000000 0.000000 0.000000 0.000000 0.000000 0.000000 -4.366838 -3.142158 17.792380 23.163218 -48.926452 28.684303 -8.175793 6.157731 105.943284 -33.242766 5.640973 15.625937 0.000000 0.000000 0.000000 0.000000 0.000000 0.000000 0.000000 0.000000 0.000000 0.000000 0.000000 0.000000 0.000000 0.000000 0.000000 0.000000 0.000000 0.000000 0.000000 0.000000 0.000000 0.000000 0.000000 0.000000 0.000000 0.000000 0.000000 0.000000 0.000000 0.000000 0.000000 0.000000 0.000000 0.000000 0.000000 0.000000 0.000000 0.000000 0.000000 0.000000 0.000000 0.000000
0.113736 -0.188833 1.066957 7.942177 -3.024259 -27.363449 -17.937746 -15.786193 6.892821 18.664163 2.870838 6.660784 -2.293366 2.959121 6.947698 0.843021 0.046867 -0.168921 -29.173654 -3.462555 2.327759 26.030391 -1.447822 -1.499042 -9.926501 6.323063 -6.914911 -1.723882 -2.551309 0.125539 45.235801 0.686551 -6.525934 -5.512848 1.071965 -6.412085 5.025267 -1.346142 -4.805022 3.340265 14.575237 11.180671 -9.088602 -2.827590 15.580324 -1.944680 12.808159 -26.921104 0.585307 40.025551 -29.333914 -18.808143 5.905936 -41.277990 -26.843414 -16.835975 -14.099528 0.000000 0.000000 0.000000 0.000000 0.000000 0.000000 0.000000 0.000000 0.000000 0.000000 0.000000 0.000000 0.000000 0.000000 0.000000 0.000000 0.000000 0.000000 0.000000 0.000000 0.000000 0.000000 0.000000 0.000000 0.000000 0.000000 0.000000 0.000000 0.000000 0.000000 0.000000 0.000000 0.000000 0.000000 0.000000 0.000000 0.000000 0.000000 0.000000 0.000000 0.000000 0.000000 -4.261927 -3.276629 17.010632 21.104989 -47.757555 25.621605 -8.936237 5.463745 107.232988 -33.171704 5.657988 16.072150 0.000000 0.000000 0.000000 0.000000 0.000000 0.000000 0.000000 0.000000 0.000000 0.000000 0.000000 0.000000 0.000000 0.000000 0.000000 0.000000 0.000000 0.000000 0.000000 0.000000 0.000000 0.000000 0.000000 0.000000 0.000000 0.000000 0.000000 0.000000 0.000000 0.000000 0.000000 0.000000 0.000000 0.000000 0.000000 0.000000 0.000000 0.000000 0.000000 0.000000 0.000000 0.000000
0.118828 -0.183935 1.066702 7.984507 -2.800908 -25.575935 -16.800426 -15.530365 6.898941 16.871132 2.379321 6.510858 -2.132847 3.089551 6.555470 0.975897 -0.083193 -0.201214 -28.263865 -3.619361 2.375975 25.614075 -1.268086 -1.231300 -10.674230 7.062212 -8.155306 -1.573614 -2.544481 0.159229 44.557719 0.652306 -7.010267 -5.913861 1.169294 -6.874536 5.698824 -1.331174 -5.341741 4.155053 15.119796 9.978811 -8.585316 -3.256577 16.269859 -1.865684 13.210171 -27.788664 3.446805 41.967057 -33.862307 -17.641454 6.245553 -42.701633 -29.331329 -16.520112 -14.641081 0.000000 0.000000 0.000000 0.000000 0.000000 0.000000 0.000000 0.000000 0.000000 0.000000 0.000000 0.000000 0.000000 0.000000 0.000000 0.000000 0.000000 0.000000 0.000000 0.000000 0.000000 0.000000 0.000000 0.000000 0.000000 0.000000 0.000000 0.000000 0.000000 0.000000 0.000000 0.000000 0.000000 0.000000 0.000000 0.000000 0.000000 0.000000 0.000000 0.000000 0.000000 0.000000 -4.144960 -3.283543 15.382286 17.943209 -45.708822 20.470623 -10.965782 4.816316 109.652256 -32.375971 6.139511 17.029339 0.000000 0.000000 0.000000 0.000000 0.000000 0.000000 0.000000 0.000000 0.000000 0.000000 0.000000 0.000000 0.000000 0.000000 0.000000 0.000000 0.000000 0.000000 0.000000 0.000000 0.000000 0.000000 0.000000 0.000000 0.000000 0.000000 0.000000 0.000000 0.000000 0.000000 0.000000 0.000000 0.000000 0.000000 0.000000 0.000000 0.000000 0.000000 0.000000 0.000000 0.000000 0.000000
